<?xml version="1.0" standalone="no"?>
<!DOCTYPE svg PUBLIC "-//W3C//DTD SVG 20010904//EN"
 "http://www.w3.org/TR/2001/REC-SVG-20010904/DTD/svg10.dtd">
<svg version="1.0" xmlns="http://www.w3.org/2000/svg"
 width="903.000000pt" height="711.000000pt" viewBox="0 0 903.000000 711.000000"
 preserveAspectRatio="xMidYMid meet">

<g transform="translate(0.000000,711.000000) scale(0.100000,-0.100000)"
fill="#000000" stroke="none">
<path d="M0 3555 l0 -3555 4515 0 4515 0 0 3555 0 3555 -4515 0 -4515 0 0
-3555z m1240 3518 c0 -5 -9 -21 -20 -38 -11 -16 -20 -42 -20 -56 0 -15 -7 -32
-15 -39 -17 -15 -19 1 -9 88 6 49 8 52 35 52 16 0 29 -3 29 -7z m1229 0 c0 -5
-22 -48 -47 -97 -45 -86 -66 -105 -67 -59 -1 25 -33 65 -46 57 -5 -3 -9 5 -9
17 0 17 -3 19 -14 10 -11 -10 -19 -7 -35 10 -12 13 -21 33 -21 46 0 23 1 23
120 23 66 0 120 -3 119 -7z m2752 -10 c1 -17 2 -17 6 0 4 15 19 17 124 17 134
0 142 -5 92 -65 -16 -18 -36 -42 -45 -54 -10 -12 -18 -38 -18 -58 0 -23 -13
-60 -36 -102 -20 -36 -37 -77 -38 -91 -2 -17 -41 -65 -123 -150 -67 -69 -119
-127 -117 -129 2 -3 33 25 68 61 35 36 71 68 80 71 18 7 34 -12 17 -22 -6 -4
-22 -36 -37 -71 -14 -35 -40 -86 -57 -114 -18 -28 -38 -63 -44 -78 -9 -20 -17
-25 -32 -21 -23 6 -25 11 -12 32 5 7 14 11 19 7 6 -4 16 2 21 13 15 27 14 29
-14 23 -15 -2 -25 0 -25 7 0 19 -27 12 -33 -9 -3 -13 -10 -18 -21 -14 -13 5
-13 10 -4 27 6 12 17 28 25 35 17 17 17 28 -1 35 -9 4 -25 -8 -41 -29 -22 -29
-55 -46 -55 -28 0 3 25 36 55 72 48 58 55 71 49 97 -15 69 -78 133 -146 150
-33 8 -35 2 -8 -35 31 -44 50 -107 49 -164 l-2 -51 -6 40 c-4 22 -13 51 -20
64 l-13 23 -38 -37 c-26 -25 -43 -35 -52 -29 -7 5 -31 11 -53 14 -36 5 -40 8
-48 43 -12 48 -31 47 -46 -3 -6 -22 -16 -40 -21 -40 -21 0 -5 94 31 175 26 60
72 118 117 146 38 24 57 29 108 29 54 0 69 -4 113 -34 28 -19 51 -32 51 -30 0
3 -12 21 -27 40 -26 35 -26 36 -9 62 9 15 20 35 23 44 5 16 32 33 40 24 2 -2
-6 -19 -17 -39 -20 -33 -20 -38 -6 -71 15 -37 29 -45 42 -25 5 8 10 6 16 -5 5
-9 6 -21 3 -26 -3 -6 -2 -10 4 -10 5 0 13 5 16 10 13 20 24 -1 18 -35 -3 -19
-2 -35 3 -35 17 1 41 25 37 37 -3 7 11 31 30 53 31 36 33 44 23 65 -6 14 -14
25 -17 25 -4 0 -19 -16 -34 -36 -22 -29 -32 -35 -58 -32 -38 4 -48 35 -22 74
11 17 13 29 7 37 -6 7 -21 40 -35 75 l-26 62 85 0 c73 0 84 -2 85 -17z m1489
13 c0 -6 -381 -361 -425 -396 -21 -16 -46 -30 -56 -30 -41 0 -17 39 84 137 49
48 61 71 27 53 -10 -6 -23 -9 -27 -9 -4 1 -16 -1 -26 -6 -29 -13 -33 4 -6 29
22 20 98 44 122 38 12 -3 72 44 156 120 64 60 78 68 112 68 21 0 39 -2 39 -4z
m624 -28 c8 -18 17 -62 20 -98 4 -36 16 -96 27 -135 12 -45 19 -102 19 -160 0
-81 -3 -95 -25 -125 -14 -19 -25 -41 -25 -49 0 -9 -7 -24 -14 -34 -13 -17 -16
-16 -38 15 -14 18 -40 59 -59 92 -19 32 -40 60 -47 63 -14 6 -54 -23 -167
-121 -81 -70 -218 -166 -237 -166 -26 0 -194 -78 -297 -138 -41 -23 -81 -41
-90 -40 -9 2 -20 19 -25 38 -7 30 -4 42 25 88 40 65 49 137 25 209 -20 61 -13
109 18 117 28 7 106 74 106 91 0 7 16 23 35 35 20 12 41 28 49 35 7 7 31 26
53 42 80 56 286 237 291 255 4 17 18 18 174 18 l169 0 13 -32z m-1455 -112
c-7 -14 -17 -26 -23 -26 -6 0 -27 -20 -46 -45 -35 -44 -58 -61 -69 -50 -3 3
28 39 69 80 41 40 76 72 78 70 1 -1 -3 -14 -9 -29z m-369 -3 c0 -18 -28 -53
-42 -53 -11 0 -10 27 2 51 13 23 40 25 40 2z m40 -56 c0 -2 -9 -14 -20 -27
-23 -27 -27 -48 -5 -30 12 10 15 10 15 -4 0 -9 -6 -16 -13 -16 -7 0 -22 -8
-33 -18 -11 -10 -32 -27 -47 -36 -27 -18 -27 -18 -27 5 0 15 19 41 57 76 49
46 73 62 73 50z m1018 -24 c-10 -2 -18 -9 -18 -14 0 -5 -4 -9 -10 -9 -5 0 -7
7 -4 15 4 8 16 14 28 14 16 -1 17 -2 4 -6z m-1014 -89 c-5 -21 -4 -25 6 -19 7
5 11 4 7 -1 -3 -5 -1 -29 3 -54 7 -36 5 -53 -10 -83 -25 -53 -17 -107 16 -107
13 0 24 -2 24 -5 0 -3 -16 -27 -35 -54 -19 -26 -35 -56 -35 -65 0 -9 -37 -55
-82 -102 -80 -83 -163 -190 -172 -223 -3 -9 -10 -36 -16 -61 l-12 -45 -19 24
c-14 17 -19 39 -19 87 0 79 29 146 99 229 40 46 51 67 51 94 0 32 -1 33 -17
19 -27 -23 -52 -29 -74 -18 -40 22 -13 76 96 194 83 88 110 123 119 153 4 12
20 28 36 35 17 7 30 16 30 20 0 5 2 8 5 8 3 0 2 -12 -1 -26z m891 -91 c-11 -3
-25 -9 -32 -15 -7 -5 -13 -5 -17 0 -9 15 5 22 38 21 21 -1 25 -3 11 -6z
m-2068 -138 c14 -25 23 -57 23 -86 0 -29 6 -51 15 -59 8 -7 15 -24 15 -37 0
-15 13 -37 31 -54 22 -21 28 -33 21 -42 -13 -16 -7 -127 11 -206 l15 -64 -49
-47 c-52 -51 -62 -83 -30 -100 28 -15 35 -13 46 12 9 20 27 26 61 19 3 0 -13
-22 -36 -48 -33 -38 -38 -48 -26 -55 12 -7 11 -12 -7 -32 -12 -14 -38 -55 -56
-93 -54 -106 -102 -175 -119 -168 -7 3 -18 5 -23 5 -14 0 -11 22 7 41 9 10 13
23 8 30 -5 9 -14 4 -30 -16 -14 -18 -28 -26 -38 -22 -17 7 -22 37 -6 37 6 0
10 5 10 12 0 6 -9 3 -20 -7 -11 -10 -22 -16 -23 -14 -11 13 -86 158 -91 175
-5 18 -1 22 25 28 38 7 46 2 29 -19 -10 -12 -10 -21 -2 -40 14 -31 25 -31 57
-3 26 23 34 50 13 47 -24 -3 -38 1 -38 10 0 13 69 19 74 6 6 -15 76 61 76 83
0 10 -8 26 -19 36 -16 14 -20 15 -30 2 -7 -8 -10 -24 -6 -35 9 -29 -11 -35
-34 -10 -11 12 -34 24 -52 28 -29 6 -35 12 -44 51 -12 48 -23 44 -34 -12 -3
-16 -10 -29 -16 -28 -11 1 -11 17 -1 75 7 38 5 43 -39 87 l-47 46 40 54 c44
60 139 146 190 172 17 9 32 19 32 21 0 9 -25 48 -42 67 -22 22 -23 54 -3 88 8
14 17 32 21 40 4 8 19 28 33 43 38 41 78 35 108 -18z m183 -171 c0 -17 -27
-37 -43 -31 -8 3 -11 18 -9 47 l4 41 24 -22 c13 -12 24 -28 24 -35z m324 24
c-5 -7 -19 -29 -32 -48 -20 -29 -23 -45 -20 -95 l3 -60 -35 1 c-99 2 -120 5
-120 17 0 7 27 39 60 72 60 59 68 80 26 69 -23 -5 -55 19 -38 30 14 9 66 0 70
-13 5 -16 14 -14 46 14 31 27 52 33 40 13z m-180 -17 c3 -4 -3 -16 -14 -26
-27 -24 -50 -6 -25 19 18 18 31 20 39 7z m302 -307 c-3 -28 -13 -55 -25 -68
-16 -17 -18 -25 -9 -34 8 -8 15 -9 25 -1 9 8 13 8 13 0 0 -6 9 -11 20 -11 11
0 20 -7 20 -15 0 -8 5 -15 11 -15 6 0 9 9 6 20 -3 13 1 23 11 29 22 11 42 3
42 -16 0 -9 -6 -13 -14 -10 -10 4 -16 -2 -18 -21 -2 -22 -8 -27 -31 -27 -31 0
-51 -23 -36 -41 14 -17 -11 -57 -27 -44 -8 7 -16 -2 -26 -29 -10 -24 -26 -44
-44 -52 -20 -10 -30 -23 -32 -42 -4 -33 -31 -37 -33 -4 -1 16 -2 18 -6 5 -2
-10 -17 -21 -31 -24 -15 -3 -39 -10 -54 -16 -34 -13 -45 -6 -54 35 -3 17 -18
53 -31 80 -30 57 -25 77 19 78 18 0 41 3 50 7 34 14 247 233 248 255 0 4 2 7
5 7 3 0 3 -21 1 -46z m621 -43 c10 -10 33 -22 51 -26 24 -5 37 -16 51 -43 11
-21 28 -42 39 -49 14 -8 21 -27 25 -65 3 -29 18 -93 32 -143 23 -75 28 -112
30 -224 2 -115 5 -135 20 -143 13 -8 15 -18 10 -45 -4 -22 -2 -40 6 -49 10
-12 10 -25 0 -63 -7 -27 -10 -59 -7 -72 7 -31 18 -126 19 -161 0 -20 6 -28 24
-33 20 -5 22 -9 13 -20 -13 -16 -5 -55 12 -55 6 0 8 -10 4 -24 -4 -18 -1 -25
15 -29 12 -3 18 -10 14 -17 -4 -7 2 -14 14 -17 17 -4 19 -8 10 -19 -15 -18 3
-63 37 -95 13 -12 26 -38 30 -58 3 -20 14 -54 24 -76 10 -22 26 -65 35 -96 20
-70 67 -118 162 -164 53 -26 73 -41 83 -64 9 -23 23 -34 53 -43 34 -10 43 -19
63 -62 13 -28 24 -57 24 -63 0 -7 4 -13 10 -13 5 0 21 -17 35 -37 21 -32 25
-53 29 -135 2 -54 0 -98 -5 -98 -5 0 -15 -13 -23 -29 -15 -28 -13 -61 10 -162
8 -37 -26 -45 -51 -12 -10 13 -25 21 -32 19 -7 -3 -22 3 -33 14 -29 29 -33 25
-27 -27 3 -31 0 -54 -9 -68 -11 -17 -12 -28 -3 -54 6 -17 9 -41 6 -51 -3 -11
3 -42 13 -69 9 -26 20 -65 24 -85 4 -21 9 -45 12 -54 3 -9 -17 25 -43 76 -83
161 -125 232 -136 232 -22 0 -47 -34 -47 -64 0 -17 7 -60 15 -95 16 -67 13
-94 -5 -45 -6 16 -15 38 -20 49 -20 40 -41 112 -61 200 -11 50 -24 105 -30
123 l-11 32 -36 -30 c-29 -24 -39 -27 -50 -17 -13 10 -12 12 6 17 50 13 98 71
76 93 -8 7 -49 -18 -86 -53 -27 -24 -85 -40 -120 -32 -23 5 -24 57 -2 66 9 3
32 6 52 6 l37 0 -25 19 c-32 26 -81 32 -101 15 -9 -8 -21 -39 -28 -69 -7 -30
-17 -55 -22 -55 -5 0 -9 -9 -9 -20 0 -23 -13 -26 -29 -6 -10 11 -9 16 4 23 14
8 14 12 -1 41 -13 27 -19 31 -30 21 -8 -6 -14 -18 -14 -25 0 -18 -20 -18 -48
2 -13 9 -22 26 -22 41 0 17 -4 23 -13 20 -8 -3 -18 -2 -24 1 -14 10 -53 95
-53 116 0 10 39 59 88 109 48 51 111 119 140 153 55 65 142 120 169 109 14 -5
11 -9 -14 -25 -42 -25 -50 -40 -21 -40 36 0 114 43 110 60 -2 8 -6 31 -9 50
-4 31 -57 188 -82 245 -5 11 -16 38 -24 60 -14 37 -130 303 -192 440 -42 91
-40 91 -95 35 -27 -28 -53 -50 -59 -50 -5 0 -7 18 -4 39 5 34 2 40 -17 46 -12
4 -34 1 -50 -5 -25 -11 -33 -9 -56 9 -15 12 -32 21 -38 21 -6 0 -30 13 -54 29
l-43 28 27 22 c30 23 66 35 86 29 7 -3 27 3 45 13 20 11 35 14 38 8 4 -5 10
-7 15 -4 13 8 40 -6 40 -21 0 -8 6 -14 13 -14 18 0 37 21 37 42 0 15 -44 125
-54 136 -5 4 -48 -17 -56 -27 -22 -29 -79 -55 -126 -57 -63 -3 -108 -25 -149
-70 -37 -41 -48 -42 -63 -9 -16 35 -15 60 4 76 47 39 56 113 22 186 -12 26
-22 62 -22 80 0 23 -5 35 -18 39 -10 3 -18 10 -18 15 0 16 27 21 50 9 11 -6
51 -13 88 -15 68 -4 133 -24 164 -52 21 -19 48 -10 48 15 0 28 -29 47 -90 61
-95 20 -100 36 -25 86 25 17 45 37 45 47 0 9 -11 40 -25 70 -47 100 -24 202
50 226 54 18 132 14 152 -7z m-1937 -11 c0 -5 -2 -10 -4 -10 -3 0 -8 5 -11 10
-3 6 -1 10 4 10 6 0 11 -4 11 -10z m1357 -36 c-3 -3 -12 -4 -19 -1 -8 3 -5 6
6 6 11 1 17 -2 13 -5z m-1080 -81 c20 -4 53 -51 53 -75 0 -4 -11 -8 -25 -8
-35 0 -42 -26 -16 -61 20 -26 20 -31 7 -57 -18 -35 -3 -74 44 -115 32 -29 32
-29 51 -9 11 13 26 18 39 15 20 -5 20 -6 1 -19 -27 -19 -40 -63 -35 -123 l4
-51 -91 0 c-51 0 -88 4 -85 9 10 15 -4 39 -25 44 -11 3 -19 14 -19 26 0 26
-39 49 -50 30 -8 -12 6 -47 25 -61 7 -5 6 -11 -1 -15 -30 -20 -11 -172 21
-173 5 -1 -10 -8 -35 -17 -43 -15 -128 -67 -141 -85 -6 -10 -58 149 -79 243
-9 40 -9 61 -2 76 9 17 7 24 -16 42 -14 11 -32 21 -38 21 -14 0 -26 28 -18 41
11 19 44 9 50 -15 7 -28 21 -26 71 12 39 29 65 26 73 -8 9 -39 36 -32 32 8 -3
29 0 35 27 45 35 13 46 53 12 42 -32 -10 -66 5 -85 36 -9 16 -23 29 -31 29 -7
0 -16 10 -18 23 -3 12 -3 -6 -1 -40 2 -35 0 -63 -4 -63 -4 0 -19 18 -32 40
-14 22 -33 42 -42 45 -19 7 -25 45 -7 45 6 0 9 6 6 13 -4 14 21 36 42 37 8 0
20 -8 27 -17 13 -17 13 -17 14 0 0 9 5 17 10 17 6 0 16 12 23 28 20 47 35 52
142 51 55 -1 110 -3 122 -6z m-588 -57 c14 -15 25 -41 27 -69 5 -40 3 -46 -17
-52 -29 -10 -46 14 -47 63 0 21 -2 42 -3 48 -7 39 9 43 40 10z m1982 8 c12
-15 0 -30 -106 -130 -148 -140 -163 -147 -179 -81 -5 21 -3 28 6 24 20 -6 84
43 168 127 41 42 80 76 86 76 6 0 18 -7 25 -16z m-815 -40 c-4 -11 -2 -15 7
-11 16 6 14 -50 -2 -66 -17 -17 -13 -31 5 -16 13 11 14 9 9 -14 -5 -18 -3 -27
5 -27 10 0 10 -3 0 -15 -16 -20 -3 -58 18 -52 10 3 28 9 42 12 24 6 24 6 5 -9
-44 -35 -65 -59 -71 -83 -4 -13 -4 -26 -2 -28 2 -3 36 2 74 10 96 20 107 18
49 -11 -27 -14 -73 -49 -101 -77 -28 -29 -79 -72 -114 -97 -80 -57 -165 -158
-179 -213 -7 -28 -24 -55 -53 -82 -83 -78 -109 -92 -178 -100 -74 -8 -114 -26
-131 -56 -13 -26 4 -42 36 -35 68 16 183 18 225 3 l45 -16 -40 -1 c-56 -1 -91
-11 -240 -68 -184 -70 -278 -117 -334 -168 -54 -49 -68 -83 -50 -126 9 -21 9
-31 0 -42 -10 -12 -20 -10 -66 12 -30 15 -54 32 -54 37 -1 6 -13 11 -27 10
-37 0 -51 25 -35 63 18 42 50 74 68 67 22 -8 133 81 133 106 0 4 16 14 35 23
22 11 35 24 35 36 0 11 14 35 30 53 17 19 30 37 30 40 0 3 -19 7 -42 8 -35 3
-48 -1 -72 -23 l-29 -26 22 -13 c21 -14 29 -49 11 -49 -5 0 -27 9 -49 21 -33
17 -44 18 -62 9 -15 -8 -45 -10 -91 -5 l-70 6 2 -38 c1 -21 1 -42 0 -48 -1 -5
-2 -18 -1 -27 2 -12 -7 -19 -26 -23 -71 -16 -143 -53 -143 -75 0 -20 42 -21
77 0 24 14 39 18 46 11 6 -6 -2 -15 -25 -24 -37 -16 -55 -34 -44 -45 4 -3 15
-1 24 4 10 6 26 8 37 3 11 -4 17 -8 13 -8 -4 -1 -3 -12 2 -26 9 -25 9 -25 -15
-9 -23 15 -25 15 -19 0 3 -9 10 -16 15 -16 11 0 0 -54 -12 -58 -5 -2 -1 -15 8
-29 16 -24 20 -25 87 -21 39 3 64 3 56 0 -8 -3 -21 -11 -28 -19 -7 -7 -20 -13
-28 -13 -12 0 -12 -4 2 -25 16 -24 20 -25 131 -25 102 0 114 -2 103 -15 -7 -8
-19 -15 -28 -15 -8 0 -38 -6 -66 -14 -28 -8 -87 -24 -131 -36 -184 -50 -301
-106 -335 -163 -19 -30 -19 -30 -24 -6 -11 54 -16 116 -11 131 6 15 41 30 56
25 11 -3 50 37 66 68 9 16 21 34 27 38 6 5 1 6 -11 2 -15 -4 -29 1 -43 15 -13
13 -28 19 -43 15 -12 -2 -48 -7 -80 -9 -32 -2 -61 -7 -64 -10 -3 -3 1 -24 9
-48 11 -35 18 -43 35 -41 32 4 33 -24 5 -81 -20 -41 -26 -47 -34 -33 -12 22
-1 57 18 57 9 0 14 7 12 18 -3 14 -13 17 -63 15 -60 -1 -155 -34 -155 -53 0
-6 -4 -10 -10 -10 -5 0 -10 6 -10 14 0 8 -5 16 -11 18 -8 3 -6 10 5 20 19 20
20 30 4 46 -6 6 -12 31 -13 54 -1 24 -5 59 -9 79 -6 27 -4 40 8 52 24 23 20
52 -9 65 -22 10 -27 9 -41 -13 -22 -33 -34 -31 -34 5 0 17 5 30 10 30 6 0 15
11 20 25 12 31 16 32 110 43 86 10 102 8 118 -19 16 -25 1 -55 -33 -63 -32 -8
-32 -21 0 -42 22 -14 26 -14 46 0 21 14 24 14 48 -13 14 -15 31 -36 37 -46 6
-12 15 -16 23 -11 9 6 6 16 -15 37 l-27 28 28 11 c20 7 31 8 39 0 19 -19 25
-10 14 21 -8 23 -8 37 0 49 9 14 6 19 -13 28 -13 6 -34 8 -46 5 -21 -6 -22 -4
-11 9 7 9 15 39 19 67 3 28 11 58 18 67 9 14 7 21 -12 40 -26 26 -23 54 3 33
10 -9 18 -9 25 -2 15 15 8 44 -14 57 -15 9 -21 7 -32 -9 -38 -54 -50 -55 -60
-1 -4 18 -16 39 -27 47 -12 8 -33 23 -47 34 -14 12 -43 32 -63 45 -21 14 -38
28 -38 33 0 4 -6 7 -13 7 -7 0 -22 7 -32 15 -11 8 -84 62 -162 120 -79 58
-143 110 -143 116 0 5 9 4 20 -3 11 -7 20 -16 20 -20 0 -5 5 -8 11 -8 10 0 54
-31 272 -192 50 -36 102 -72 116 -80 14 -7 42 -25 61 -40 39 -31 50 -34 50
-15 0 29 36 45 114 52 68 7 82 11 102 34 19 22 26 24 50 16 16 -6 30 -19 33
-30 8 -46 46 -39 54 9 5 30 25 81 62 158 11 23 10 29 -9 46 -40 38 -66 74 -66
93 0 26 32 92 50 104 20 12 209 6 231 -8 30 -18 43 -51 30 -75 -7 -13 -17 -19
-26 -16 -16 7 -19 -6 -9 -43 4 -13 12 -23 20 -23 8 0 28 -14 46 -30 l33 -30
-29 6 c-21 5 -27 4 -22 -5 5 -7 1 -20 -8 -30 -17 -18 -15 -26 21 -90 1 -2 13
4 27 12 20 14 24 23 20 49 -7 48 5 60 43 46 26 -10 34 -9 48 5 9 9 21 17 26
17 13 0 11 -24 -3 -38 -10 -10 -10 -15 2 -22 9 -6 17 -5 21 2 10 16 42 -11 35
-28 -3 -7 -1 -16 5 -19 5 -4 -2 -16 -16 -27 -14 -11 -24 -23 -21 -26 3 -3 -10
-24 -29 -48 -55 -66 -48 -78 26 -42 24 11 62 23 84 24 76 7 88 12 81 39 -4 14
-17 41 -31 61 -33 48 -32 64 8 100 44 40 72 55 84 43 6 -6 36 19 82 66 40 41
77 75 81 75 5 0 19 15 31 33 12 17 29 38 37 44 21 18 42 -2 42 -39 l0 -29 33
23 c41 29 44 33 51 79 4 26 21 54 55 91 47 51 48 55 30 66 -10 7 -19 18 -19
25 0 14 68 118 84 129 6 4 5 12 -3 22 -7 8 -10 20 -6 25 4 7 -1 8 -11 4 -18
-7 -15 4 9 35 14 17 30 15 23 -4z m-1006 -80 c0 -17 -25 -46 -52 -60 l-31 -16
7 29 c4 15 12 34 18 40 10 13 58 18 58 7z m480 -54 c0 -5 -4 -10 -10 -10 -5 0
-10 5 -10 10 0 6 5 10 10 10 6 0 10 -4 10 -10z m20 -36 c0 -8 -5 -12 -10 -9
-6 4 -8 11 -5 16 9 14 15 11 15 -7z m-1741 -24 l16 -24 -32 24 c-37 27 -41 33
-17 28 9 -2 24 -14 33 -28z m496 -21 c38 -25 39 -33 20 -111 -6 -22 -1 -32 26
-57 19 -17 49 -37 67 -46 20 -10 32 -23 32 -36 0 -29 -30 -36 -49 -13 -9 11
-32 39 -53 63 l-36 42 -39 -19 -38 -20 -38 41 c-26 29 -41 57 -49 90 -9 44 -8
51 12 72 29 31 94 28 145 -6z m-403 -7 c3 9 6 9 12 0 9 -16 -30 -53 -49 -46
-18 7 -20 41 -2 47 6 2 17 0 24 -5 7 -5 13 -4 15 4z m632 -58 c20 -53 -18
-104 -78 -104 -20 0 -36 3 -36 8 0 9 93 112 101 112 4 0 10 -7 13 -16z m1126
-41 c0 -30 -3 -44 -10 -37 -8 8 -3 84 6 84 2 0 4 -21 4 -47z m-1283 -187 c4
-30 -11 -56 -32 -56 -21 0 -25 27 -9 60 19 37 36 35 41 -4z m960 -162 c-3 -3
-12 -4 -19 -1 -8 3 -5 6 6 6 11 1 17 -2 13 -5z m891 -57 c17 -6 32 -17 32 -24
0 -7 6 -13 13 -13 7 0 22 -6 32 -14 16 -11 19 -25 17 -69 -2 -39 2 -58 11 -64
8 -5 17 -34 20 -69 7 -71 -9 -162 -44 -242 -23 -52 -23 -53 -5 -106 14 -41 16
-58 7 -74 -15 -28 -14 -78 2 -94 16 -16 41 -103 33 -116 -3 -5 5 -7 17 -5 17
3 25 -3 35 -25 7 -16 10 -36 7 -44 -4 -10 1 -17 14 -21 15 -3 19 -13 19 -36
-1 -25 9 -42 45 -79 35 -35 47 -56 47 -77 0 -17 10 -46 22 -65 42 -66 47 -75
57 -96 5 -11 20 -27 33 -36 12 -9 35 -26 49 -39 39 -36 114 -86 140 -94 36
-11 104 -70 130 -112 20 -31 24 -54 26 -128 1 -49 5 -141 9 -204 l7 -114 -29
7 c-16 4 -39 7 -51 7 -12 -1 -28 8 -36 19 -14 20 -15 20 -21 -11 -9 -48 -7
-118 5 -142 10 -21 9 -21 -5 -3 -38 47 -67 76 -76 76 -14 0 -33 -49 -31 -82 2
-36 -16 -29 -48 17 -25 38 -48 45 -58 19 -6 -16 -13 1 -41 101 -18 62 -32 154
-32 207 0 153 -51 329 -164 572 -26 54 -57 124 -70 155 -14 31 -41 92 -61 136
-61 132 -125 275 -125 280 0 2 -13 34 -30 70 -16 36 -30 70 -30 76 0 16 -51
59 -71 59 -13 0 -16 5 -12 16 11 30 -21 9 -55 -36 -26 -34 -33 -51 -29 -74 3
-23 -1 -36 -16 -48 -26 -23 -37 -23 -37 1 0 11 -4 23 -10 26 -5 3 -10 17 -10
31 0 13 -4 24 -10 24 -24 0 -6 43 35 83 41 40 44 46 36 74 -14 47 -28 68 -68
102 l-38 32 40 -5 c34 -5 45 -1 73 23 37 33 39 48 14 95 l-19 35 -39 -34 c-40
-36 -74 -45 -74 -21 0 15 84 96 100 96 5 0 10 14 10 30 0 23 8 35 33 51 29 18
42 20 137 14 58 -3 120 -11 138 -18z m-418 -257 c0 -12 -17 -12 -45 0 -17 7
-15 9 13 9 17 1 32 -3 32 -9z m-264 -268 c7 -4 13 -16 15 -27 3 -11 18 -26 34
-34 69 -32 91 -73 73 -139 -8 -28 -7 -38 5 -47 19 -14 11 -159 -9 -176 -8 -6
-14 -21 -14 -33 0 -12 -13 -35 -30 -51 -16 -15 -30 -38 -30 -49 0 -50 -14
-103 -36 -131 -19 -25 -23 -41 -21 -88 2 -51 4 -57 23 -57 12 0 36 -3 54 -6
29 -6 31 -10 26 -36 -5 -25 -2 -29 24 -34 25 -5 27 -9 17 -24 -8 -14 -8 -27 0
-52 52 -154 68 -195 78 -208 7 -8 18 -32 24 -52 7 -21 18 -41 25 -45 7 -5 19
-21 27 -38 8 -18 31 -38 55 -50 23 -11 62 -37 88 -58 36 -31 52 -37 74 -33 16
3 35 0 46 -9 17 -13 14 -18 -51 -82 l-68 -68 -22 -110 c-25 -128 -25 -275 1
-393 20 -93 20 -116 1 -78 -8 15 -15 36 -15 45 0 9 -16 47 -35 85 -78 156
-113 138 -76 -39 25 -115 24 -105 11 -105 -5 0 -10 7 -10 15 0 8 -4 23 -9 33
-6 9 -18 39 -27 65 -17 48 -49 97 -63 97 -4 0 -4 -26 0 -57 19 -144 21 -168
16 -163 -3 3 -21 52 -40 110 -19 57 -40 106 -47 108 -9 3 -10 -5 -6 -27 17
-86 18 -96 9 -86 -37 42 -73 268 -73 465 0 114 -5 159 -25 245 -23 99 -106
355 -175 545 -18 47 -44 126 -59 175 -26 86 -29 90 -54 87 -23 -2 -27 1 -27
22 0 26 -14 40 -42 41 -26 0 -26 20 0 23 16 3 22 10 22 28 0 15 6 24 15 24 20
0 19 25 -5 89 -24 65 -29 71 -71 80 -37 7 -52 31 -20 31 12 0 21 -4 21 -10 0
-5 7 -10 16 -10 18 0 17 4 -6 113 -12 52 -11 59 5 77 10 11 23 20 30 20 6 0
44 16 85 36 41 20 85 40 99 45 34 10 133 11 147 1z m-731 -112 c3 -5 1 -10 -4
-10 -6 0 -11 5 -11 10 0 6 2 10 4 10 3 0 8 -4 11 -10z m-695 -200 c29 -29 26
-68 -5 -76 -30 -7 -35 -44 -7 -44 27 0 66 -40 53 -53 -9 -9 -17 -8 -31 1 -60
37 -76 -12 -21 -67 24 -24 81 -17 81 10 0 11 5 27 11 37 9 14 6 29 -15 71 -27
51 -27 52 -6 49 12 -2 29 -16 38 -33 9 -16 18 -32 20 -35 2 -3 8 3 14 13 7 13
17 17 32 13 13 -3 31 1 42 9 36 27 51 19 52 -30 1 -25 4 -63 7 -85 4 -32 2
-38 -10 -34 -8 4 -15 15 -15 26 0 14 -5 18 -16 14 -9 -3 -24 -6 -35 -6 -16 0
-18 -3 -9 -20 6 -11 16 -17 25 -14 10 4 15 0 15 -10 0 -9 -7 -19 -15 -22 -8
-4 -15 -14 -15 -23 0 -10 3 -12 8 -5 4 6 17 14 30 18 17 6 22 3 23 -11 1 -15
2 -15 6 -2 3 14 9 15 39 6 27 -8 40 -8 55 1 10 7 19 8 19 3 0 -5 9 -7 20 -4
11 3 20 0 20 -6 0 -6 -16 -11 -35 -11 -28 0 -35 -4 -36 -20 -1 -11 -2 -26 -3
-32 -1 -17 68 -28 132 -21 l53 6 -6 48 c-6 46 -5 50 27 80 58 55 201 109 288
109 47 0 141 -41 150 -66 6 -14 21 -25 42 -29 18 -4 42 -14 54 -22 23 -15 38
-61 24 -78 -4 -5 -11 -53 -14 -105 -7 -125 -5 -117 -40 -146 -17 -13 -37 -29
-44 -35 -7 -5 -10 -15 -6 -20 3 -5 -5 -18 -18 -28 l-23 -19 28 -7 c15 -4 26
-12 24 -19 -2 -6 -34 -29 -71 -50 l-67 -39 20 -21 c14 -15 21 -39 23 -86 4
-63 5 -65 30 -62 26 2 27 1 21 -44 -3 -28 0 -57 8 -71 10 -19 10 -26 -4 -41
-11 -12 -13 -22 -7 -32 8 -12 10 -10 10 9 0 20 2 21 15 11 8 -7 15 -19 15 -27
0 -7 -7 -16 -15 -19 -22 -9 -19 -51 5 -64 11 -6 20 -20 20 -30 0 -33 37 -62
73 -58 30 3 32 1 35 -34 2 -21 9 -39 15 -39 7 -1 43 -3 80 -4 66 -2 70 -4 107
-41 21 -21 41 -49 44 -61 6 -18 0 -23 -43 -38 -27 -9 -55 -23 -61 -31 -7 -7
-19 -14 -28 -14 -21 0 -52 -30 -52 -50 0 -10 -11 -33 -23 -52 -29 -42 -40
-115 -40 -268 0 -63 -2 -108 -4 -100 -19 66 -74 160 -95 160 -4 0 -8 -26 -8
-57 l-1 -58 -22 37 c-50 86 -56 14 -11 -134 3 -10 1 -18 -5 -18 -6 0 -11 11
-11 24 0 14 -4 28 -10 31 -5 3 -10 21 -10 40 0 19 -4 37 -10 40 -5 3 -10 15
-10 26 0 21 -19 27 -21 7 -1 -7 -5 1 -9 17 -5 17 -15 52 -22 79 l-14 48 -31
-26 c-18 -15 -44 -52 -59 -82 -26 -53 -37 -133 -47 -351 -1 -22 -5 -40 -8 -38
-3 2 -18 35 -33 72 -14 37 -36 79 -47 93 -20 24 -21 24 -35 5 -17 -23 -17 -34
-1 -75 14 -32 12 -80 -4 -80 -4 0 -13 19 -19 42 -31 113 -97 140 -70 28 12
-48 8 -70 -11 -70 -5 0 -9 9 -9 19 0 11 -4 23 -10 26 -5 3 -10 16 -10 29 0 27
-21 74 -36 80 -13 5 -1 -83 17 -127 14 -34 6 -45 -16 -23 -26 25 -30 20 -32
-43 -2 -46 0 -60 13 -65 10 -4 14 -12 10 -23 -4 -9 0 -31 8 -48 19 -39 28 -65
33 -94 2 -13 10 -33 18 -44 10 -14 11 -25 4 -39 -13 -24 -3 -41 63 -105 44
-43 58 -51 80 -46 21 4 27 12 31 41 4 37 -17 102 -34 102 -5 0 -9 6 -9 13 0 6
-29 48 -65 92 -65 79 -95 130 -95 159 0 25 22 66 37 66 7 0 13 5 13 10 0 24
123 -3 132 -30 2 -6 14 -4 32 5 66 35 105 12 166 -98 25 -44 36 -57 49 -51 34
14 51 16 68 9 15 -5 11 -10 -20 -26 -21 -11 -40 -26 -43 -33 -3 -8 7 -42 21
-77 29 -68 33 -108 16 -152 -6 -16 -11 -40 -11 -54 0 -21 2 -24 15 -13 8 7 15
18 15 26 0 7 16 30 36 51 20 21 43 51 51 68 17 33 52 75 64 75 4 0 15 -7 24
-16 15 -16 15 -19 -9 -41 -14 -13 -26 -28 -26 -33 0 -6 -8 -18 -17 -29 -77
-81 -103 -113 -103 -126 0 -9 -9 -43 -21 -77 -11 -34 -21 -93 -23 -131 -2 -68
-3 -70 -41 -98 -21 -16 -42 -26 -46 -23 -12 7 -1 61 23 113 11 24 20 56 20 70
1 42 -41 184 -63 211 l-20 25 4 -85 c2 -47 7 -95 12 -107 6 -19 4 -23 -11 -23
-13 0 -25 14 -37 40 -27 63 -59 49 -81 -35 -6 -26 -16 -47 -21 -48 -19 -4 -16
44 5 78 15 24 20 47 18 77 -4 51 -24 60 -55 26 -79 -85 -118 -118 -140 -118
-30 0 -223 184 -248 235 -18 39 -12 80 14 95 15 8 15 10 -1 26 -16 17 -18 16
-27 -7 -7 -17 -10 -19 -10 -7 -1 22 -43 50 -63 43 -19 -8 -60 31 -76 71 -6 16
-23 76 -37 133 -13 58 -29 109 -34 114 -6 6 -16 -3 -26 -24 -14 -26 -17 -57
-16 -148 1 -120 19 -202 67 -301 27 -56 18 -80 -30 -80 -25 0 -44 11 -81 45
-32 29 -52 41 -56 33 -17 -27 -149 146 -149 195 0 7 -5 18 -11 24 -16 16 -39
-8 -39 -39 -1 -13 -7 -34 -15 -48 -8 -14 -15 -38 -15 -55 0 -27 -4 -23 -29 30
-67 140 -106 257 -104 309 1 28 2 71 3 96 0 25 -7 84 -18 130 -10 47 -17 103
-14 126 4 40 5 41 50 52 47 10 92 2 92 -18 0 -6 5 -8 11 -4 13 8 6 53 -26 146
-22 66 -23 73 -9 100 19 37 15 41 -19 25 -24 -11 -27 -17 -25 -60 0 -26 -1
-50 -5 -53 -3 -3 -23 -8 -45 -11 -48 -6 -86 11 -79 37 5 20 -10 30 -48 30 -12
0 -27 6 -33 13 -11 14 -34 124 -37 177 -1 19 -5 42 -9 52 -4 9 -6 29 -4 44 4
36 46 61 133 81 61 14 65 16 65 43 0 16 -4 31 -9 35 -5 3 -52 -3 -103 -14
-141 -29 -158 -31 -158 -21 0 6 10 14 23 19 12 5 51 23 86 40 40 19 80 31 105
31 30 0 45 5 53 19 32 50 135 89 248 92 l55 2 0 33 c0 18 -5 36 -10 39 -13 8
-285 -50 -335 -70 -40 -17 -56 -4 -23 20 55 38 100 65 109 65 6 0 7 5 4 10 -4
6 -11 8 -16 5 -15 -10 -23 24 -9 40 6 7 35 21 63 31 71 22 96 40 91 61 -7 27
49 89 87 97 28 5 31 9 26 35 -7 34 11 53 90 97 29 16 53 32 53 36 0 13 -22 20
-32 10 -8 -8 -22 -6 -47 7 -28 14 -49 17 -98 12 -68 -7 -83 -15 -65 -33 7 -7
12 -22 12 -34 0 -26 -37 -44 -99 -47 -41 -2 -43 0 -56 36 -7 20 -16 62 -20 92
-6 48 -4 55 14 67 12 7 21 23 21 36 0 19 5 23 23 20 12 -2 27 -13 32 -26 8
-18 17 -22 41 -20 18 1 38 -3 45 -8 8 -6 26 -14 40 -17 21 -5 32 0 53 23 14
16 26 34 26 40 0 17 29 11 50 -10 24 -24 36 -25 44 -5 3 8 12 15 19 15 13 0
27 -46 32 -105 4 -55 14 -65 66 -65 37 0 52 -4 61 -19 11 -18 14 -19 42 -4 17
9 45 26 61 39 60 45 134 67 225 67 47 0 101 -3 121 -8 20 -4 39 -3 42 2 6 9
-14 102 -26 121 -13 19 -50 15 -200 -23 -158 -40 -237 -70 -301 -113 -25 -17
-47 -28 -50 -24 -3 3 -6 20 -6 39 0 29 6 37 55 68 50 32 55 38 49 63 -4 15 -8
29 -10 31 -2 2 19 19 46 38 28 18 50 37 50 42 0 19 -62 39 -94 30 -17 -5 -48
-9 -69 -9 -40 0 -59 -22 -38 -43 6 -6 11 -24 11 -39 0 -22 -4 -28 -23 -28 -12
0 -47 -6 -77 -14 -31 -8 -59 -11 -65 -6 -6 5 -17 36 -24 70 -14 64 -24 78 -44
61 -7 -5 -22 -9 -32 -9 -11 1 -32 -2 -47 -5 -23 -6 -28 -4 -28 12 0 23 42 36
70 21 13 -7 20 -7 20 -1 0 5 16 27 35 48 19 21 35 48 35 60 0 12 10 29 22 37
20 14 23 13 46 -9 31 -31 42 -31 42 -1 0 13 3 32 6 41 6 14 1 16 -25 13 -29
-3 -33 1 -56 49 l-24 52 42 9 c74 17 125 14 147 -8z m-212 -62 c-3 -7 -13 -15
-24 -17 -16 -3 -17 -1 -5 13 16 19 34 21 29 4z m6002 -93 c42 -43 52 -57 42
-67 -9 -9 -22 -3 -57 32 l-45 44 -45 -44 c-35 -35 -48 -41 -57 -32 -10 10 0
24 42 67 30 30 57 55 60 55 3 0 30 -25 60 -55z m-6028 -254 c-26 -5 -42 -21
-42 -42 0 -11 -7 -19 -16 -19 -11 0 -14 5 -10 16 3 9 6 24 6 35 0 10 7 19 15
19 8 0 15 4 15 9 0 5 11 4 25 -2 20 -10 21 -13 7 -16z m266 17 c20 -20 14 -44
-23 -84 -30 -33 -35 -35 -35 -17 0 12 7 28 15 37 8 8 15 28 15 45 0 33 8 39
28 19z m-293 -311 c0 -26 -20 -25 -23 2 -3 16 1 22 10 19 7 -3 13 -12 13 -21z
m-395 -42 c0 -8 -7 -15 -15 -15 -8 0 -15 7 -15 15 0 8 7 15 15 15 8 0 15 -7
15 -15z m300 -21 c0 -20 -29 -30 -43 -15 -9 10 -8 16 7 26 21 16 36 11 36 -11z
m66 -11 c-10 -10 -19 5 -10 18 6 11 8 11 12 0 2 -7 1 -15 -2 -18z m-313 -15
c10 -5 16 -17 15 -26 -5 -27 49 -28 85 -2 24 18 31 20 39 9 6 -10 7 -7 3 9
-11 38 19 26 31 -13 9 -28 8 -35 -2 -35 -7 0 -16 5 -20 11 -5 8 -9 8 -14 -1
-4 -7 -29 -16 -56 -21 -60 -11 -71 -21 -56 -53 14 -31 1 -43 -50 -47 -45 -4
-49 0 -65 59 -30 115 3 155 90 110z m4637 -173 c0 -8 -2 -15 -4 -15 -2 0 -6 7
-10 15 -3 8 -1 15 4 15 6 0 10 -7 10 -15z m-4654 -52 c-10 -10 -19 5 -10 18 6
11 8 11 12 0 2 -7 1 -15 -2 -18z m6311 -135 l43 -42 45 44 c35 35 48 41 57 32
10 -10 0 -24 -45 -70 l-57 -57 -56 56 c-32 32 -54 62 -50 68 11 17 17 14 63
-31z m-6457 -332 c0 -14 -40 -30 -50 -20 -5 6 29 34 42 34 4 0 8 -6 8 -14z m0
-131 c-7 -14 -20 -25 -29 -25 -13 1 -12 4 4 16 19 14 19 15 -3 21 l-23 6 23
12 c31 16 45 2 28 -30z m23 -70 c32 1 38 -28 10 -44 -13 -7 -15 -13 -7 -18 6
-5 15 -32 19 -60 6 -47 5 -53 -12 -53 -41 0 -63 12 -63 34 0 12 -6 28 -12 35
-10 11 -10 14 0 18 18 7 15 27 -8 48 l-21 19 23 22 c17 16 26 19 33 10 6 -6
22 -11 38 -11z m2484 -257 c-3 -8 -6 -5 -6 6 -1 11 2 17 5 13 3 -3 4 -12 1
-19z m-2407 -78 c0 -11 7 -23 15 -27 24 -8 44 -55 61 -140 9 -42 27 -94 40
-115 20 -31 25 -55 29 -140 3 -57 12 -150 20 -208 8 -58 17 -128 19 -156 2
-28 9 -60 15 -72 10 -19 9 -21 -6 -15 -16 6 -16 5 -4 -10 8 -10 11 -21 7 -24
-10 -10 -52 43 -80 102 -42 87 -98 288 -111 400 -12 100 -28 190 -37 201 -10
14 -13 125 -5 169 3 17 6 36 6 43 1 21 31 13 31 -8z m1720 -112 c0 -10 -4 -18
-10 -18 -5 0 -10 8 -10 18 0 9 -3 28 -6 42 l-5 25 15 -25 c8 -14 15 -33 16
-42z m-1812 -395 c20 -53 23 -73 13 -90 -9 -16 -11 -15 -20 9 -5 14 -15 29
-20 33 -6 3 -11 22 -11 41 0 42 23 46 38 7z m2036 -244 c35 -27 33 -42 -9 -62
-44 -21 -63 -51 -71 -113 -4 -27 -21 -81 -39 -119 -19 -39 -43 -96 -55 -127
-15 -41 -25 -55 -36 -51 -22 8 -17 37 12 64 14 13 31 35 36 49 12 29 77 271
85 315 5 29 29 65 43 65 4 0 19 -9 34 -21z m713 -248 c33 -21 63 -43 66 -48
11 -17 -5 -52 -25 -55 -11 -2 -27 -16 -36 -31 -16 -27 -16 -29 2 -42 11 -9 16
-20 12 -31 -3 -9 -1 -23 5 -30 9 -11 15 -9 35 11 13 13 24 32 24 42 0 10 7 29
16 41 21 31 54 14 54 -29 0 -50 -25 -83 -88 -117 -68 -37 -72 -37 -72 -17 0
11 -11 9 -47 -11 -27 -15 -53 -32 -59 -40 -6 -8 -16 -14 -23 -14 -6 0 -11 -4
-11 -9 0 -4 -28 -19 -62 -31 -67 -24 -110 -61 -112 -95 -2 -37 -50 -83 -100
-96 -54 -13 -64 -8 -48 24 6 12 13 47 15 77 2 30 12 95 22 144 l18 90 -23 18
c-12 10 -33 18 -46 18 -18 0 -24 5 -24 23 0 20 18 33 118 84 251 130 316 163
322 163 4 0 34 -18 67 -39z m-1397 -1 c0 -5 -7 -10 -15 -10 -8 0 -15 5 -15 10
0 6 7 10 15 10 8 0 15 -4 15 -10z m-209 -173 c-8 -8 -11 -5 -11 9 0 27 14 41
18 19 2 -9 -1 -22 -7 -28z m339 -206 c0 -17 -4 -32 -9 -35 -11 -7 -24 41 -16
54 12 20 25 9 25 -19z m1280 21 c0 -17 -60 -101 -79 -111 -81 -44 -60 45 23
94 43 26 56 30 56 17z m-2880 -652 c0 -5 -5 -10 -11 -10 -5 0 -7 5 -4 10 3 6
8 10 11 10 2 0 4 -4 4 -10z m44 -9 c3 -4 19 -11 35 -14 16 -4 49 -15 73 -26
73 -33 171 -73 213 -87 36 -11 24 -13 -127 -13 -158 -1 -168 0 -178 19 -6 12
-10 31 -8 43 2 14 -3 23 -14 25 -14 3 -18 -3 -18 -27 0 -17 5 -31 10 -31 6 0
10 -7 10 -15 0 -20 -20 -19 -36 3 -15 20 -18 58 -5 67 5 3 12 19 16 35 6 30
19 38 29 21z"/>
<path d="M5277 6974 c-4 -4 -7 -14 -7 -23 0 -11 3 -12 11 -4 6 6 10 16 7 23
-2 6 -7 8 -11 4z"/>
<path d="M5316 6946 c-13 -24 -15 -39 -9 -51 9 -16 12 -15 32 6 24 26 26 38 8
62 -11 16 -14 14 -31 -17z"/>
<path d="M4713 6635 l-22 -15 21 -36 c13 -22 26 -33 35 -30 8 3 22 6 31 6 9 0
25 14 34 30 16 29 16 30 -5 45 -27 19 -67 19 -94 0z"/>
<path d="M6710 6410 c-8 -5 -12 -11 -9 -14 3 -3 14 1 25 9 21 16 8 20 -16 5z"/>
<path d="M4289 6483 c-1 -5 -1 -17 0 -29 1 -11 -3 -32 -8 -47 l-11 -27 50 0
c45 0 52 3 61 26 5 15 8 28 7 29 -2 1 -19 14 -39 28 -36 27 -58 34 -60 20z"/>
<path d="M4270 6005 c0 -2 11 -20 24 -40 26 -37 43 -127 33 -167 -4 -13 -36
-55 -72 -95 -36 -39 -65 -74 -65 -77 0 -34 131 90 164 155 9 17 16 39 16 49 0
9 5 21 11 27 26 26 -54 153 -96 153 -8 0 -15 -2 -15 -5z"/>
<path d="M4155 5981 c-7 -13 2 -18 48 -26 29 -6 37 -4 37 8 0 24 -71 39 -85
18z"/>
<path d="M4276 5644 c-10 -25 -7 -34 9 -34 8 0 15 9 15 19 0 26 -16 35 -24 15z"/>
<path d="M4763 6256 c-17 -19 -19 -27 -9 -35 9 -8 18 -7 31 3 15 11 17 18 9
35 l-9 22 -22 -25z"/>
<path d="M4920 5906 c0 -8 5 -18 10 -21 6 -3 10 3 10 14 0 12 -4 21 -10 21 -5
0 -10 -6 -10 -14z"/>
<path d="M4907 5833 c-11 -10 -8 -43 3 -43 6 0 10 11 10 25 0 26 -2 29 -13 18z"/>
<path d="M4768 5793 c7 -3 16 -2 19 1 4 3 -2 6 -13 5 -11 0 -14 -3 -6 -6z"/>
<path d="M4851 5765 c-1 -15 5 -20 24 -20 14 0 25 3 25 8 0 4 -9 7 -19 7 -11
0 -22 6 -24 13 -3 6 -6 3 -6 -8z"/>
<path d="M5646 5036 c3 -9 11 -16 16 -16 13 0 5 23 -10 28 -7 2 -10 -2 -6 -12z"/>
<path d="M6045 4085 c-27 -13 -28 -14 -7 -15 13 0 30 7 38 15 19 18 9 18 -31
0z"/>
<path d="M5923 4047 c-24 -6 -43 -17 -43 -24 0 -19 34 -16 73 6 19 10 43 21
53 24 11 3 7 5 -11 4 -16 0 -49 -5 -72 -10z"/>
<path d="M6078 3798 c-34 -12 -37 -28 -5 -28 23 0 47 17 47 32 0 10 -7 9 -42
-4z"/>
<path d="M3746 5812 c-2 -4 -6 -25 -7 -47 -4 -37 -2 -40 26 -45 58 -11 64 61
8 87 -13 6 -25 8 -27 5z"/>
<path d="M3890 5780 c-8 -11 -20 -20 -27 -20 -7 0 -13 -9 -13 -21 0 -11 -4
-28 -9 -38 -15 -28 17 -42 58 -25 33 14 34 15 27 61 -8 58 -17 69 -36 43z"/>
<path d="M4000 5525 c0 -8 5 -15 10 -15 6 0 10 7 10 15 0 8 -4 15 -10 15 -5 0
-10 -7 -10 -15z"/>
<path d="M3356 5253 c-3 -10 -9 -24 -12 -30 -4 -9 3 -13 20 -13 26 0 32 13 20
44 -8 21 -20 20 -28 -1z"/>
<path d="M3477 5236 c-4 -9 -13 -13 -20 -10 -10 3 -18 -5 -25 -25 -9 -26 -8
-31 9 -36 33 -11 59 4 59 33 0 36 -15 60 -23 38z"/>
<path d="M3560 5120 c0 -5 4 -10 9 -10 6 0 13 5 16 10 3 6 -1 10 -9 10 -9 0
-16 -4 -16 -10z"/>
<path d="M3348 4893 c-8 -34 12 -73 37 -73 19 0 22 4 18 23 -13 58 -47 89 -55
50z"/>
<path d="M3076 4760 c-17 -6 -18 -7 -3 -13 9 -3 19 -2 23 4 9 15 2 18 -20 9z"/>
<path d="M3002 4630 c0 -14 2 -19 5 -12 2 6 2 18 0 25 -3 6 -5 1 -5 -13z"/>
<path d="M3166 4405 c8 -20 -22 -31 -41 -15 -10 9 -15 9 -15 1 0 -14 37 -51
51 -51 6 0 9 -7 5 -15 -6 -18 -5 -18 28 -5 31 11 63 67 47 83 -7 7 -15 7 -25
-2 -11 -9 -17 -8 -29 4 -20 19 -28 19 -21 0z"/>
<path d="M2804 4105 c-3 -8 1 -22 10 -30 15 -15 16 -15 16 4 0 12 5 21 10 21
6 0 10 5 10 10 0 16 -40 12 -46 -5z"/>
<path d="M2492 3685 c0 -16 2 -22 5 -12 2 9 2 23 0 30 -3 6 -5 -1 -5 -18z"/>
<path d="M2270 3685 c0 -8 7 -15 15 -15 8 0 15 7 15 15 0 8 -7 15 -15 15 -8 0
-15 -7 -15 -15z"/>
<path d="M3221 3454 c0 -11 3 -14 6 -6 3 7 2 16 -1 19 -3 4 -6 -2 -5 -13z"/>
<path d="M2555 3421 c-245 -64 -321 -127 -215 -177 l44 -22 17 28 c39 63 154
117 263 122 l57 3 -3 35 c-4 46 -21 47 -163 11z"/>
<path d="M3230 3376 c0 -65 -10 -94 -44 -131 -15 -16 -26 -40 -26 -56 0 -16
-5 -29 -11 -29 -6 0 -28 -13 -48 -28 -20 -16 -44 -32 -54 -35 -24 -9 -13 -27
12 -20 43 11 91 -37 96 -95 3 -34 34 -132 55 -172 10 -20 23 -63 29 -95 14
-76 64 -130 116 -127 23 2 42 -5 64 -23 17 -15 36 -23 42 -19 17 10 3 222 -20
304 -28 100 -53 183 -62 205 -4 11 -18 49 -29 85 -24 69 -37 104 -51 132 -5
10 -9 23 -9 28 0 6 -9 30 -20 52 -11 23 -20 50 -20 60 0 10 -4 18 -10 18 -5 0
-10 -24 -10 -54z"/>
<path d="M2829 2955 c-1 -19 -2 -41 -3 -47 -1 -7 9 -14 22 -16 18 -3 22 1 22
22 0 14 -4 28 -10 31 -5 3 -10 15 -10 26 0 34 -20 20 -21 -16z"/>
<path d="M2830 2850 l-25 -7 26 -11 c15 -6 29 -21 32 -34 3 -13 15 -48 27 -78
11 -30 28 -89 36 -130 24 -123 34 -155 45 -139 13 21 11 72 -7 136 -9 32 -19
70 -21 86 -3 15 -9 30 -14 33 -5 3 -9 16 -9 29 0 13 -4 34 -9 47 -5 13 -12 35
-15 51 -7 28 -19 32 -66 17z"/>
<path d="M3770 2786 c0 -11 9 -16 26 -16 31 0 28 23 -4 28 -15 2 -22 -2 -22
-12z"/>
<path d="M2525 2767 c-11 -7 -23 -16 -27 -22 -5 -6 -11 -5 -17 3 -6 10 -10 4
-15 -20 -5 -27 -3 -36 15 -50 32 -26 39 -22 39 22 0 22 3 40 8 40 4 0 13 9 20
20 14 22 7 25 -23 7z"/>
<path d="M2475 2630 c-11 -5 -15 -9 -9 -9 40 -3 60 -57 88 -249 24 -159 73
-233 69 -103 -1 61 -21 162 -47 244 -7 23 -19 61 -26 85 -14 44 -30 51 -75 32z"/>
<path d="M2248 2180 c2 -40 8 -70 14 -70 6 0 8 12 4 31 -3 17 -6 49 -6 70 0
22 -3 39 -7 39 -5 0 -7 -31 -5 -70z"/>
<path d="M2834 1868 c3 -7 9 -21 12 -30 7 -21 24 -24 24 -5 -1 14 -24 47 -34
47 -4 0 -5 -6 -2 -12z"/>
<path d="M2762 1820 c0 -14 2 -19 5 -12 2 6 2 18 0 25 -3 6 -5 1 -5 -13z"/>
<path d="M2286 1771 c-4 -7 -5 -15 -2 -18 9 -9 19 4 14 18 -4 11 -6 11 -12 0z"/>
<path d="M2341 1714 c0 -11 3 -14 6 -6 3 7 2 16 -1 19 -3 4 -6 -2 -5 -13z"/>
<path d="M1830 2500 c0 -5 5 -10 11 -10 5 0 7 5 4 10 -3 6 -8 10 -11 10 -2 0
-4 -4 -4 -10z"/>
</g>
</svg>
